<?xml version="1.0" encoding="UTF-8" standalone="no"?>
<svg width="253px" height="153px" viewBox="0 0 253 153" version="1.1" xmlns="http://www.w3.org/2000/svg" xmlns:xlink="http://www.w3.org/1999/xlink" xmlns:sketch="http://www.bohemiancoding.com/sketch/ns">
    <!-- Generator: Sketch 3.4.2 (15855) - http://www.bohemiancoding.com/sketch -->
    <title>Artboard 1</title>
    <desc>Created with Sketch.</desc>
    <defs></defs>
    <g id="Page-1" stroke="none" stroke-width="1" fill="none" fill-rule="evenodd" sketch:type="MSPage">
        <g id="Artboard-1" sketch:type="MSArtboardGroup" stroke="#D14542" fill="#D14542">
            <g id="white-gulp" sketch:type="MSLayerGroup">
                <g id="Group" sketch:type="MSShapeGroup">
                    <path d="M67.533,79.118 C67.357,79.378 67.039,80.197 66.578,81.574 C66.117,82.953 65.557,84.681 64.898,86.762 C64.24,88.841 63.525,91.167 62.758,93.741 C61.989,96.314 61.199,98.94 60.387,101.618 C59.575,104.298 58.796,106.922 58.05,109.496 C57.302,112.069 56.634,114.395 56.042,116.476 C55.449,118.554 54.956,120.297 54.56,121.702 C54.165,123.105 53.923,123.936 53.836,124.198 C53.616,125.029 53.265,125.952 52.783,126.967 C52.299,127.98 51.729,128.943 51.071,129.853 C50.412,130.762 49.689,131.516 48.898,132.115 C48.107,132.712 47.295,133.011 46.462,133.011 C45.056,133.011 44.036,132.543 43.4,131.608 C42.762,130.671 42.445,128.957 42.445,126.461 L42.445,125.368 C42.445,125.004 42.466,124.614 42.511,124.199 C42.554,123.367 42.884,121.805 43.499,119.518 C44.113,117.23 44.849,114.644 45.705,111.758 C46.561,108.872 47.483,105.883 48.471,102.789 C49.459,99.695 50.347,96.927 51.138,94.481 C48.81,97.083 46.287,99.669 43.566,102.242 C40.843,104.816 38.056,107.13 35.203,109.183 C32.349,111.239 29.474,112.915 26.577,114.214 C23.68,115.512 20.891,116.164 18.214,116.164 C15.141,116.164 12.496,115.487 10.279,114.136 C8.062,112.783 6.23,111.016 4.781,108.832 C3.332,106.648 2.256,104.179 1.554,101.423 C0.851,98.667 0.5,95.912 0.5,93.156 L0.5,92.141 C0.5,91.83 0.521,91.518 0.566,91.206 C0.829,86.214 1.542,81.093 2.706,75.841 C3.869,70.589 5.394,65.363 7.283,60.164 C9.17,54.966 11.354,49.882 13.835,44.916 C16.314,39.951 19.014,35.258 21.934,30.838 C24.853,26.42 27.959,22.351 31.251,18.632 C34.543,14.915 37.923,11.717 41.392,9.039 C44.859,6.362 48.36,4.269 51.894,2.761 C55.427,1.254 58.929,0.5 62.396,0.5 C66.39,0.5 70.254,1.592 73.985,3.775 C77.715,5.959 81.205,9.496 84.455,14.382 C85.2,15.474 85.673,16.579 85.87,17.696 C86.067,18.815 86.166,19.867 86.166,20.855 C86.166,23.194 85.606,25.042 84.487,26.393 C83.368,27.746 82.04,28.421 80.503,28.421 C79.098,28.421 77.793,27.68 76.585,26.198 C75.377,24.716 74.027,22.598 72.535,19.842 C71.13,17.346 69.582,15.54 67.893,14.422 C66.203,13.304 64.37,12.745 62.394,12.745 C59.321,12.745 56.04,14.02 52.55,16.567 C49.06,19.115 45.603,22.483 42.179,26.668 C38.754,30.854 35.473,35.636 32.334,41.018 C29.196,46.4 26.418,51.911 24.004,57.553 C21.589,63.195 19.669,68.759 18.243,74.242 C16.816,79.728 16.103,84.654 16.103,89.023 C16.103,90.478 16.202,91.974 16.399,93.506 C16.597,95.04 16.969,96.432 17.519,97.679 C18.067,98.927 18.813,99.954 19.758,100.759 C20.702,101.568 21.898,101.968 23.347,101.968 C24.971,101.968 26.815,101.423 28.878,100.33 C30.94,99.239 33.081,97.809 35.298,96.041 C37.514,94.273 39.742,92.272 41.982,90.035 C44.221,87.801 46.305,85.539 48.237,83.25 C50.168,80.963 51.881,78.765 53.373,76.659 C54.865,74.554 55.984,72.721 56.731,71.161 L62.855,52.832 C63.601,50.857 64.577,49.454 65.785,48.621 C66.992,47.79 68.232,47.373 69.506,47.373 C70.12,47.373 70.734,47.478 71.349,47.685 C71.963,47.893 72.512,48.218 72.995,48.66 C73.478,49.102 73.861,49.674 74.147,50.376 C74.432,51.078 74.575,51.897 74.575,52.832 C74.575,55.328 74.355,57.668 73.917,59.852 C73.478,62.038 72.918,64.168 72.238,66.248 C71.557,68.327 70.8,70.421 69.967,72.526 C69.134,74.632 68.322,76.83 67.533,79.118 L67.533,79.118 Z" id="Shape"></path>
                    <path d="M150.565,94.405 C148.632,97.005 146.383,99.539 143.816,102.009 C141.248,104.479 138.602,106.676 135.881,108.6 C133.158,110.523 130.481,112.07 127.848,113.24 C125.214,114.41 122.844,114.995 120.737,114.995 C118.63,114.995 116.918,114.293 115.6,112.89 C114.284,111.487 113.625,109.095 113.625,105.714 C113.625,103.322 113.976,100.54 114.678,97.368 C113.536,99.397 112.111,101.451 110.399,103.53 C108.686,105.61 106.733,107.508 104.538,109.224 C102.343,110.94 99.885,112.33 97.163,113.395 C94.441,114.46 91.477,114.995 88.274,114.995 C86.826,114.995 85.431,114.812 84.092,114.448 C82.752,114.085 81.579,113.462 80.57,112.577 C79.559,111.694 78.748,110.512 78.133,109.028 C77.518,107.548 77.211,105.688 77.211,103.452 C77.211,103.4 77.299,102.607 77.475,101.073 C77.649,99.54 78.209,97.122 79.154,93.819 C80.097,90.519 81.558,86.242 83.533,80.99 C85.509,75.738 88.296,69.37 91.895,61.883 C92.817,59.907 93.881,58.49 95.088,57.632 C96.296,56.774 97.601,56.345 99.006,56.345 C99.621,56.345 100.257,56.437 100.916,56.617 C101.575,56.801 102.188,57.085 102.76,57.475 C103.33,57.865 103.791,58.36 104.143,58.956 C104.495,59.554 104.67,60.242 104.67,61.023 C104.67,61.543 104.604,62.038 104.472,62.503 C104.252,63.39 103.781,64.545 103.056,65.974 C102.331,67.405 101.487,69.044 100.522,70.889 C99.555,72.735 98.535,74.724 97.46,76.856 C96.384,78.988 95.386,81.197 94.464,83.485 C93.542,85.774 92.752,88.1 92.094,90.465 C91.435,92.831 91.062,95.132 90.975,97.366 C90.975,98.303 91.194,99.161 91.633,99.94 C92.071,100.72 92.795,101.111 93.806,101.111 C96.659,101.111 99.38,100.174 101.971,98.302 C104.561,96.431 106.952,94.104 109.149,91.322 C111.343,88.542 113.33,85.551 115.107,82.353 C116.885,79.155 118.368,76.231 119.552,73.579 C120.386,71.811 121.12,69.913 121.758,67.885 C122.394,65.858 123.085,63.987 123.832,62.27 C124.578,60.554 125.434,59.125 126.399,57.981 C127.364,56.837 128.572,56.265 130.021,56.265 C131.601,56.265 132.851,56.864 133.774,58.058 C134.696,59.255 135.156,60.684 135.156,62.348 C135.156,63.285 134.861,64.571 134.268,66.208 C133.674,67.847 132.928,69.719 132.028,71.824 C131.129,73.929 130.152,76.178 129.099,78.57 C128.045,80.963 127.067,83.393 126.169,85.862 C125.268,88.333 124.523,90.751 123.93,93.117 C123.337,95.482 123.041,97.679 123.041,99.706 C123.041,101.579 124.006,102.514 125.937,102.514 C127.297,102.514 128.988,102.046 131.006,101.112 C133.027,100.175 135.144,98.862 137.361,97.173 C139.577,95.484 141.794,93.494 144.011,91.207 C146.227,88.919 148.193,86.449 149.904,83.797 L150.565,94.405 L150.565,94.405 Z" id="Shape"></path>
                    <path d="M152.607,90.503 C152.124,91.7 151.652,93.091 151.191,94.677 C150.729,96.263 150.5,97.679 150.5,98.927 C150.5,99.706 150.632,100.33 150.895,100.799 C151.159,101.267 151.664,101.501 152.411,101.501 C153.332,101.501 154.484,101.177 155.867,100.526 C157.249,99.876 158.741,99.017 160.345,97.952 C161.948,96.888 163.616,95.665 165.349,94.286 C167.082,92.909 168.806,91.478 170.518,89.997 C172.231,88.514 173.865,87.033 175.424,85.552 C176.982,84.069 178.376,82.704 179.606,81.457 C179.957,81.093 180.373,80.832 180.857,80.677 C181.338,80.521 181.756,80.443 182.108,80.443 C182.985,80.443 183.711,80.807 184.281,81.536 C184.85,82.264 185.136,83.224 185.136,84.422 C185.136,85.513 184.828,86.735 184.215,88.087 C183.6,89.44 182.525,90.766 180.987,92.064 C178.177,95.133 175.347,98.044 172.493,100.8 C169.639,103.556 166.798,105.986 163.967,108.091 C161.135,110.198 158.325,111.874 155.538,113.123 C152.75,114.37 150.04,114.994 147.405,114.994 C145.605,114.994 144.101,114.708 142.895,114.137 C141.686,113.564 140.722,112.784 139.998,111.798 C139.273,110.809 138.757,109.64 138.45,108.287 C138.142,106.935 137.99,105.507 137.99,103.998 C137.99,101.45 138.308,98.838 138.944,96.158 C139.58,93.482 140.337,91.024 141.215,88.789 C142.751,84.732 144.311,80.705 145.891,76.7 C147.47,72.697 148.919,69.031 150.238,65.702 L170.188,15.397 C170.978,13.369 172.042,11.939 173.382,11.107 C174.721,10.276 176.07,9.859 177.432,9.859 C178.791,9.859 180.033,10.301 181.153,11.185 C182.271,12.07 182.832,13.499 182.832,15.475 C182.832,16.411 182.644,17.399 182.271,18.438 C181.898,19.48 181.426,20.596 180.856,21.792 C179.758,24.236 178.453,27.226 176.938,30.76 C175.423,34.297 173.798,38.144 172.064,42.303 C170.331,46.464 168.552,50.792 166.732,55.289 C164.909,59.786 163.131,64.167 161.397,68.431 C159.664,72.696 158.04,76.737 156.525,80.559 C155.01,84.381 153.704,87.696 152.607,90.503 L152.607,90.503 Z" id="Shape"></path>
                    <path d="M245.912,76.387 C246.527,75.971 247.099,75.634 247.625,75.372 C248.151,75.114 248.656,74.982 249.14,74.982 C250.104,74.982 250.829,75.412 251.313,76.269 C251.795,77.127 252.037,78.18 252.037,79.428 C252.037,80.782 251.742,82.157 251.148,83.562 C250.556,84.965 249.667,86.135 248.481,87.071 C243.783,91.231 239.591,95.026 235.906,98.459 C232.218,101.89 228.738,104.842 225.468,107.312 C222.198,109.782 219.005,111.693 215.888,113.044 C212.771,114.395 209.435,115.071 205.878,115.071 C202.542,115.071 199.963,114.342 198.142,112.887 C196.32,111.432 195.409,109.43 195.409,106.881 L195.409,106.296 C195.409,106.115 195.43,105.894 195.475,105.633 C195.649,104.074 196.331,102.279 197.516,100.252 C198.702,98.224 200.128,96.118 201.796,93.935 C203.464,91.752 205.241,89.541 207.13,87.305 C209.017,85.071 210.761,82.951 212.365,80.948 C213.967,78.948 215.295,77.115 216.347,75.45 C217.402,73.787 217.928,72.436 217.928,71.395 C217.928,70.771 217.707,70.278 217.27,69.913 C216.832,69.55 216.106,69.368 215.097,69.368 C213.34,69.368 211.531,69.822 209.665,70.733 C207.798,71.641 205.954,72.864 204.133,74.397 C202.311,75.932 200.532,77.687 198.799,79.662 C197.065,81.639 195.442,83.692 193.926,85.824 C192.411,87.957 191.03,90.1 189.778,92.259 C188.527,94.416 187.462,96.405 186.585,98.225 C186.322,98.797 185.948,99.604 185.465,100.643 C184.982,101.684 184.455,102.854 183.886,104.154 C183.314,105.453 182.711,106.794 182.074,108.169 C181.437,109.548 180.856,110.849 180.33,112.069 C179.803,113.291 179.33,114.381 178.914,115.345 C178.496,116.306 178.199,116.969 178.025,117.333 C177.804,117.801 177.442,118.684 176.938,119.984 C176.433,121.284 175.852,122.804 175.192,124.547 C174.535,126.288 173.842,128.121 173.119,130.045 C172.396,131.969 171.715,133.789 171.078,135.505 C170.441,137.22 169.881,138.728 169.399,140.028 C168.916,141.327 168.608,142.212 168.476,142.679 C168.038,144.031 167.521,145.304 166.929,146.501 C166.336,147.696 165.656,148.749 164.888,149.66 C164.12,150.568 163.241,151.297 162.254,151.844 C161.265,152.39 160.157,152.662 158.929,152.662 C157.348,152.662 156.043,152.284 155.01,151.531 C153.98,150.777 153.463,149.334 153.463,147.202 C153.463,146.162 153.594,145.097 153.858,144.006 C154.123,142.913 154.452,141.833 154.846,140.768 C155.241,139.702 155.648,138.663 156.064,137.65 C156.482,136.635 156.867,135.661 157.216,134.724 C159.587,129.524 162.001,124.312 164.459,119.086 C166.918,113.86 169.277,108.689 171.537,103.565 C173.798,98.444 175.894,93.413 177.827,88.473 C179.758,83.534 181.36,78.802 182.633,74.279 C182.984,73.342 183.467,72.017 184.082,70.3 C184.696,68.585 185.398,66.896 186.189,65.231 C186.979,63.568 187.868,62.125 188.855,60.904 C189.843,59.682 190.907,59.07 192.048,59.07 C193.805,59.07 195.077,59.472 195.867,60.279 C196.658,61.086 197.053,62.267 197.053,63.828 C197.053,64.14 197.009,64.635 196.922,65.309 C196.833,65.985 196.724,66.702 196.593,67.455 C196.461,68.209 196.318,68.924 196.164,69.601 C196.01,70.277 195.867,70.77 195.735,71.081 C197.359,69.313 199.115,67.559 201.004,65.817 C202.891,64.076 204.845,62.501 206.865,61.098 C208.883,59.695 210.947,58.551 213.054,57.665 C215.161,56.782 217.268,56.34 219.375,56.34 C220.822,56.34 222.261,56.548 223.687,56.964 C225.113,57.38 226.387,57.991 227.506,58.796 C228.626,59.604 229.536,60.617 230.238,61.838 C230.939,63.061 231.291,64.478 231.291,66.089 C231.291,68.222 230.754,70.496 229.679,72.914 C228.603,75.331 227.253,77.762 225.63,80.205 C224.004,82.65 222.248,85.028 220.361,87.342 C218.472,89.656 216.707,91.762 215.06,93.659 C213.414,95.557 212.032,97.169 210.912,98.494 C209.793,99.821 209.21,100.718 209.167,101.185 C209.167,101.81 209.365,102.316 209.76,102.706 C210.155,103.096 210.814,103.291 211.736,103.291 C212.482,103.291 213.58,102.874 215.029,102.042 C216.476,101.211 218.507,99.768 221.119,97.715 C223.729,95.661 227.046,92.905 231.062,89.446 C235.081,85.995 240.03,81.639 245.912,76.387 L245.912,76.387 Z" id="Shape"></path>
                </g>
            </g>
        </g>
    </g>
</svg>